<svg width="512" height="512" viewBox="0 0 512 512" fill="none" xmlns="http://www.w3.org/2000/svg">
<rect width="512" height="512" rx="24" fill="#F7F7F5"/>
<path d="M120.5 342V167H196.5C207.5 167 217.083 168.917 225.25 172.75C233.417 176.583 239.75 182 244.25 189C248.75 196 251 204.25 251 213.75V216.75C251 227.25 248.5 235.75 243.5 242.25C238.5 248.75 232.333 253.5 225 256.5V261C231.667 261.333 236.833 263.667 240.5 268C244.167 272.167 246 277.75 246 284.75V342H213V289.5C213 285.5 211.917 282.25 209.75 279.75C207.75 277.25 204.333 276 199.5 276H153.5V342H120.5ZM153.5 246H193C200.833 246 206.917 243.917 211.25 239.75C215.75 235.417 218 229.75 218 222.75V220.25C218 213.25 215.833 207.667 211.5 203.5C207.167 199.167 201 197 193 197H153.5V246ZM344.959 345.5C323.292 345.5 306.126 339.5 293.459 327.5C280.792 315.333 274.459 298 274.459 275.5V233.5C274.459 211 280.792 193.75 293.459 181.75C306.126 169.583 323.292 163.5 344.959 163.5C366.459 163.5 383.042 169.417 394.709 181.25C406.542 192.917 412.459 209 412.459 229.5V231H379.959V228.5C379.959 218.167 377.042 209.667 371.209 203C365.542 196.333 356.792 193 344.959 193C333.292 193 324.126 196.583 317.459 203.75C310.792 210.917 307.459 220.667 307.459 233V276C307.459 288.167 310.792 297.917 317.459 305.25C324.126 312.417 333.292 316 344.959 316C356.792 316 365.542 312.667 371.209 306C377.042 299.167 379.959 290.667 379.959 280.5V276H412.459V279.5C412.459 300 406.542 316.167 394.709 328C383.042 339.667 366.459 345.5 344.959 345.5Z" fill="#171717"/>
</svg>
